<svg xmlns="http://www.w3.org/2000/svg" xmlns:xlink="http://www.w3.org/1999/xlink" width="383" height="375" fill="none" xmlns:v="https://vecta.io/nano"><path fill="#fff" d="M0 0h382.887v374.235H0z"/><mask id="A" fill="#fff"><path fill-rule="evenodd" d="M378.056 310.445a5.34 5.34 0 0 1 0 2 5.33 5.33 0 0 1-.012 2.06c.115.645.112 1.296-.011 1.94a5.34 5.34 0 0 1 0 2 5.34 5.34 0 0 1 0 2c.445 2.331-.675 4.769-3.36 6.555l-67.598 44.95c-4.599 3.058-12.047 3.045-16.635-.029l-283-189.588c-2.672-1.791-3.785-4.224-3.34-6.549-.127-.664-.127-1.336 0-2-.127-.664-.127-1.336 0-2-.127-.664-.127-1.336 0-2-.186-.97-.1-1.958.257-2.911-.121-1.185.157-2.384.834-3.5.413-1.522 1.501-2.979 3.262-4.153l67.396-44.931c4.595-3.063 12.037-3.05 16.622.029l282.247 189.569c2.67 1.793 3.782 4.23 3.339 6.558z"/></mask><path fill-rule="evenodd" d="M378.056 310.445a5.34 5.34 0 0 1 0 2 5.33 5.33 0 0 1-.012 2.06c.115.645.112 1.296-.011 1.94a5.34 5.34 0 0 1 0 2 5.34 5.34 0 0 1 0 2c.445 2.331-.675 4.769-3.36 6.555l-67.598 44.95c-4.599 3.058-12.047 3.045-16.635-.029l-283-189.588c-2.672-1.791-3.785-4.224-3.34-6.549-.127-.664-.127-1.336 0-2-.127-.664-.127-1.336 0-2-.127-.664-.127-1.336 0-2-.186-.97-.1-1.958.257-2.911-.121-1.185.157-2.384.834-3.5.413-1.522 1.501-2.979 3.262-4.153l67.396-44.931c4.595-3.063 12.037-3.05 16.622.029l282.247 189.569c2.67 1.793 3.782 4.23 3.339 6.558z" fill="#d0d0d0"/><path d="M378.056 310.445l-2.947-.562-.107.562.107.561 2.947-.561zm0 2l-2.947-.562-.107.562.107.561 2.947-.561zm-.012 2.06l-2.941-.594-.113.561.101.564 2.953-.531zm-.011 1.94l-2.947-.564-.108.564.108.564 2.947-.564zm0 2l-2.947-.564-.108.564.108.564 2.947-.564zm0 2l-2.947-.564-.108.564.108.564 2.947-.564zm-3.36 6.555l1.661 2.498h0L374.673 327zm-67.598 44.95l-1.662-2.498 1.662 2.498zm-16.635-.029l1.669-2.492-1.669 2.492zm-283-189.588l1.67-2.493h0l-1.67 2.493zm-3.34-6.549l2.947.564.108-.564-.108-.563-2.947.563zm0-2l2.947.564.108-.564-.108-.563-2.947.563zm0-2l2.947.564.108-.564-.108-.563-2.947.563zm0-2l2.947.564.108-.564-.108-.563-2.947.563zm.257-2.911l2.809 1.053.247-.658-.071-.7-2.984.305zm.834-3.5l2.565 1.556.22-.362.111-.408-2.895-.786zm3.262-4.153l-1.664-2.496h0l1.664 2.496zm67.396-44.931l1.664 2.496h0l-1.664-2.496zm16.622.029l1.673-2.491-1.673 2.491zm282.247 189.569l-1.672 2.49 1.672-2.49zm.392 7.119a2.35 2.35 0 0 1 0 .877l5.894 1.123a8.32 8.32 0 0 0 0-3.122l-5.894 1.122zm0 2c.057.302.055.602-.006.905l5.881 1.189a8.33 8.33 0 0 0 .019-3.217l-5.894 1.123zm-.018 2.03c.051.282.049.563-.005.845l5.893 1.128c.192-1.005.198-2.027.017-3.034l-5.905 1.061zm-.005 1.973c.056.291.056.581 0 .872l5.893 1.128a8.31 8.31 0 0 0 0-3.128l-5.893 1.128zm0 2c.056.291.056.581 0 .872l5.893 1.128a8.31 8.31 0 0 0 0-3.128l-5.893 1.128zm0 2c.163.855-.124 2.195-2.074 3.492l3.322 4.997c3.42-2.274 5.373-5.809 4.645-9.617l-5.893 1.128zm-2.074 3.492l-67.599 44.951 3.323 4.996 67.598-44.95-3.322-4.997zm-67.599 44.951c-1.706 1.135-4.106 1.788-6.655 1.783s-4.946-.665-6.649-1.806l-3.339 4.985c2.885 1.933 6.506 2.815 9.978 2.821s7.096-.864 9.988-2.787l-3.323-4.996zm-13.304-.023l-283-189.589-3.339 4.985 283 189.589 3.339-4.985zm-283-189.589c-1.942-1.3-2.227-2.639-2.064-3.492l-5.893-1.127c-.726 3.796 1.214 7.324 4.617 9.604l3.339-4.985zm-2.064-4.619a2.3 2.3 0 0 1 0-.873l-5.893-1.127c-.198 1.036-.198 2.091 0 3.127l5.893-1.127zm0-2a2.3 2.3 0 0 1 0-.873l-5.893-1.127c-.198 1.036-.198 2.091 0 3.127l5.893-1.127zm0-2a2.3 2.3 0 0 1 0-.873l-5.893-1.127c-.198 1.036-.198 2.091 0 3.127l5.893-1.127zm0-2c-.08-.418-.048-.848.12-1.295l-5.619-2.105c-.546 1.457-.685 3.004-.394 4.527l5.893-1.127zm.295-2.653c-.05-.491.052-1.042.414-1.639l-5.13-3.112c-.992 1.636-1.445 3.483-1.253 5.361l5.969-.61zm.745-2.409c.185-.682.74-1.582 2.031-2.443l-3.328-4.992c-2.232 1.488-3.853 3.5-4.494 5.864l5.791 1.571zm2.031-2.443l67.396-44.931-3.328-4.992-67.396 44.931 3.328 4.992zm67.396-44.931c1.705-1.136 4.101-1.789 6.646-1.785s4.939.666 6.639 1.808l3.345-4.981c-2.884-1.937-6.504-2.821-9.975-2.827s-7.093.866-9.984 2.793l3.328 4.992zm13.285.023l282.248 189.569 3.345-4.981L94.143 111.827l-3.345 4.981zm282.248 189.569c1.938 1.302 2.228 2.645 2.064 3.506l5.894 1.123c.722-3.795-1.212-7.325-4.613-9.61l-3.345 4.981z" fill="#333" mask="url(#A)"/><rect x="2.493" y=".004" width="98" height="357" rx="8.5" transform="matrix(.83205 -.5547 .830139 .557556 .41519 163.41)" fill="#fff" stroke="#333" stroke-width="3"/><g clip-path="url(#B)"><path d="M84.01 121.572l-60.74 40.493 60.6 40.701 60.739-40.493-60.6-40.701z" fill="#fff"/><g fill="#000"><use xlink:href="#C"/><path d="M34.52 159.634l-1.833 1.222 1.828 1.228 1.833-1.222-1.828-1.228z"/><path d="M36.352 158.412l-1.833 1.222 1.828 1.228 1.833-1.222-1.828-1.228z"/><use xlink:href="#D"/><use xlink:href="#E"/><use xlink:href="#F"/><path d="M43.683 153.525l-1.833 1.222 1.828 1.228 1.833-1.222-1.828-1.228zm3.665-2.443l-1.833 1.222 1.828 1.228 1.833-1.222-1.828-1.228zm3.666-2.444l-1.833 1.222 1.829 1.228 1.833-1.222-1.828-1.228zm9.163-6.109l-1.833 1.222 1.829 1.228 1.833-1.222-1.828-1.228z"/><path d="M62.01 141.308l-1.833 1.221 1.828 1.228 1.833-1.221-1.828-1.228zm3.665-2.444l-1.833 1.222 1.828 1.228 1.833-1.222-1.828-1.228zm3.665-2.444l-1.833 1.222 1.828 1.228 1.833-1.221-1.829-1.229zm3.666-2.443l-1.833 1.222 1.828 1.228 1.833-1.222-1.829-1.228z"/><path d="M74.838 132.755l-1.833 1.222 1.829 1.228 1.833-1.222-1.828-1.228z"/><path d="M76.671 131.533l-1.833 1.222 1.828 1.228 1.833-1.222-1.828-1.228z"/><path d="M78.504 130.312l-1.833 1.221 1.828 1.228 1.833-1.221-1.828-1.228z"/><path d="M80.336 129.09l-1.833 1.222 1.828 1.228 1.833-1.222-1.828-1.228z"/><path d="M82.169 127.868l-1.833 1.222 1.828 1.228 1.833-1.222-1.828-1.228z"/><path d="M84.002 126.646l-1.833 1.222 1.828 1.228 1.833-1.222-1.829-1.228zm-49.486 35.438l-1.833 1.222 1.828 1.228 1.833-1.222-1.828-1.228zm10.996-7.331l-1.833 1.222 1.828 1.228 1.833-1.222-1.828-1.228zm5.498-3.665l-1.833 1.222 1.828 1.228 1.833-1.222-1.828-1.228z"/><path d="M52.842 149.866l-1.833 1.222 1.828 1.228 1.833-1.222-1.828-1.228z"/><path d="M54.675 148.644l-1.833 1.222 1.828 1.228 1.833-1.221-1.829-1.229z"/><use xlink:href="#G"/><path d="M60.173 144.979l-1.833 1.222 1.828 1.228 1.833-1.222-1.828-1.228z"/><path d="M62.006 143.757l-1.833 1.222 1.828 1.228 1.833-1.222-1.828-1.228zm12.828-8.552l-1.833 1.222 1.828 1.228 1.833-1.222-1.828-1.228zm10.996-7.331l-1.833 1.222 1.829 1.228 1.833-1.222-1.828-1.228zm-49.486 35.438l-1.833 1.222 1.828 1.228 1.833-1.222-1.828-1.228zm3.665-2.443l-1.833 1.221 1.828 1.228 1.833-1.221-1.828-1.228z"/><path d="M41.842 159.647l-1.833 1.222 1.828 1.228 1.833-1.222-1.828-1.228z"/><path d="M43.675 158.425l-1.833 1.222 1.828 1.228 1.833-1.222-1.829-1.228z"/><use xlink:href="#H"/><path d="M54.671 151.094l-1.833 1.222 1.829 1.228 1.833-1.222-1.828-1.228z"/><path d="M56.503 149.873l-1.833 1.221 1.828 1.228 1.833-1.221-1.828-1.228z"/><path d="M58.336 148.651l-1.833 1.222 1.828 1.228 1.833-1.222-1.828-1.228z"/><path d="M60.169 147.429l-1.833 1.222 1.828 1.228 1.833-1.222-1.828-1.228zm3.665-2.444l-1.833 1.222 1.829 1.228 1.833-1.221-1.829-1.229z"/><path d="M65.667 143.764l-1.833 1.221 1.829 1.229 1.833-1.222-1.828-1.228zm5.498-3.666l-1.833 1.222 1.828 1.228 1.833-1.222-1.828-1.228z"/><path d="M72.997 138.877l-1.833 1.221 1.828 1.228 1.833-1.221-1.828-1.228zm3.666-2.444l-1.833 1.222 1.828 1.228 1.833-1.222-1.829-1.228z"/><use xlink:href="#I"/><use xlink:href="#J"/><use xlink:href="#K"/><path d="M87.659 129.102l-1.833 1.222 1.828 1.228 1.833-1.222-1.828-1.228zM38.172 164.54l-1.833 1.222 1.828 1.228L40 165.768l-1.828-1.228z"/><use xlink:href="#L"/><path d="M43.67 160.875l-1.833 1.222 1.829 1.228 1.833-1.222-1.828-1.228z"/><path d="M45.503 159.653l-1.833 1.222 1.828 1.228 1.833-1.222-1.828-1.228zm3.665-2.443l-1.833 1.221 1.828 1.228 1.833-1.221-1.828-1.228zm3.666-2.444l-1.833 1.222 1.828 1.228 1.833-1.222-1.828-1.228z"/><path d="M54.666 153.544l-1.833 1.222 1.828 1.228 1.833-1.222-1.828-1.228z"/><path d="M56.499 152.322l-1.833 1.222 1.828 1.228 1.833-1.222-1.828-1.228z"/><path d="M58.332 151.101l-1.833 1.221 1.828 1.228 1.833-1.221-1.829-1.228zm3.665-2.444l-1.833 1.222 1.828 1.228 1.833-1.222-1.828-1.228zm5.498-3.665l-1.833 1.222 1.828 1.228 1.833-1.222-1.828-1.228zm5.498-3.666l-1.833 1.222 1.828 1.228 1.833-1.222-1.829-1.228zm5.498-3.665l-1.833 1.222 1.829 1.228 1.833-1.222-1.829-1.228zm3.665-2.443l-1.833 1.221 1.828 1.228 1.833-1.221-1.829-1.228z"/><path d="M83.989 133.996l-1.833 1.222 1.829 1.228 1.833-1.222-1.828-1.228z"/><path d="M85.822 132.774l-1.833 1.222 1.828 1.228 1.833-1.222-1.828-1.228zm3.665-2.444l-1.833 1.222 1.828 1.228 1.833-1.221-1.828-1.229zm-49.486 35.438l-1.833 1.222 1.828 1.228 1.833-1.222-1.828-1.228z"/><use xlink:href="#M"/><path d="M45.499 162.103l-1.833 1.222 1.828 1.228 1.833-1.222-1.828-1.228z"/><path d="M47.332 160.881l-1.833 1.222 1.828 1.228 1.833-1.222-1.828-1.228zm3.665-2.443l-1.833 1.221 1.828 1.228 1.833-1.221-1.828-1.228zm12.829-8.553l-1.833 1.222 1.828 1.228 1.833-1.222-1.828-1.228z"/><path d="M65.658 148.663l-1.833 1.222 1.828 1.228 1.833-1.222-1.828-1.228z"/><path d="M67.491 147.442l-1.833 1.221 1.828 1.228 1.833-1.221-1.829-1.228zm3.665-2.444l-1.833 1.222 1.828 1.228 1.833-1.222-1.829-1.228zm9.164-6.109l-1.833 1.222 1.828 1.228 1.833-1.222-1.828-1.228zm3.665-2.443l-1.833 1.221 1.828 1.228 1.833-1.221-1.828-1.228z"/><path d="M85.817 135.224l-1.833 1.222 1.828 1.228 1.833-1.222-1.828-1.228z"/><path d="M87.65 134.002l-1.833 1.222 1.828 1.228 1.833-1.222-1.829-1.228zm3.665-2.443l-1.833 1.221 1.828 1.228 1.833-1.221-1.829-1.228zm-49.486 35.437l-1.833 1.222 1.828 1.228 1.833-1.222-1.828-1.228zm10.996-7.33l-1.833 1.221 1.828 1.228 1.833-1.221-1.828-1.228zm3.666-2.444l-1.833 1.222 1.828 1.228 1.833-1.222-1.828-1.228z"/><path d="M58.323 156l-1.833 1.222 1.828 1.228 1.833-1.222L58.323 156z"/><path d="M60.156 154.779L58.323 156l1.828 1.228 1.833-1.221-1.828-1.228z"/><path d="M61.989 153.557l-1.833 1.222 1.828 1.228 1.833-1.222-1.829-1.228z"/><path d="M63.821 152.335l-1.833 1.222 1.829 1.228 1.833-1.222-1.828-1.228z"/><path d="M65.654 151.113l-1.833 1.222 1.828 1.228 1.833-1.222-1.829-1.228zm3.665-2.443l-1.833 1.221 1.829 1.229 1.833-1.222-1.828-1.228z"/><path d="M71.152 147.448l-1.833 1.222 1.828 1.228 1.833-1.222-1.829-1.228zm10.996-7.331l-1.833 1.222 1.828 1.228 1.833-1.222-1.828-1.228z"/><use xlink:href="#N"/><path d="M43.658 168.224l-1.833 1.222 1.828 1.228 1.833-1.222-1.828-1.228z"/><path d="M45.49 167.003l-1.833 1.221 1.828 1.228 1.833-1.221-1.828-1.228z"/><path d="M47.323 165.781l-1.833 1.222 1.828 1.228 1.833-1.222-1.829-1.228z"/><path d="M49.156 164.559l-1.833 1.222 1.829 1.228 1.833-1.222-1.828-1.228z"/><path d="M50.988 163.337l-1.833 1.222 1.828 1.228 1.833-1.222-1.828-1.228z"/><path d="M52.821 162.115l-1.833 1.222 1.828 1.228 1.833-1.221-1.828-1.229z"/><path d="M54.654 160.894l-1.833 1.221 1.828 1.229 1.833-1.222-1.828-1.228zm3.665-2.444l-1.833 1.222 1.828 1.228 1.833-1.222-1.828-1.228zm3.665-2.443l-1.833 1.221 1.829 1.228 1.833-1.221-1.828-1.228zm3.666-2.444l-1.833 1.222 1.828 1.228 1.833-1.222-1.829-1.228zm3.665-2.443l-1.833 1.221 1.829 1.228 1.833-1.221-1.828-1.228zm3.665-2.444l-1.833 1.222 1.829 1.228 1.833-1.222-1.828-1.228zm3.666-2.444l-1.833 1.222 1.828 1.228 1.833-1.222-1.828-1.228zm3.665-2.443l-1.833 1.222 1.828 1.228 1.833-1.222-1.828-1.228zm3.665-2.444l-1.833 1.222 1.829 1.228 1.833-1.222-1.828-1.228z"/><path d="M85.809 140.124l-1.833 1.221 1.828 1.228 1.833-1.221-1.829-1.228z"/><path d="M87.642 138.902l-1.833 1.222 1.829 1.228 1.833-1.222-1.828-1.228z"/><path d="M89.474 137.68l-1.833 1.222 1.828 1.228 1.833-1.222-1.828-1.228z"/><path d="M91.307 136.458l-1.833 1.222 1.828 1.228 1.833-1.222-1.828-1.228z"/><path d="M93.14 135.236l-1.833 1.222 1.828 1.228 1.833-1.222-1.828-1.228z"/><path d="M94.972 134.015l-1.833 1.221 1.828 1.228 1.833-1.221-1.828-1.228zM61.98 158.456l-1.833 1.222 1.828 1.228 1.833-1.221-1.828-1.229zm9.164-6.108l-1.833 1.221 1.828 1.228 1.833-1.221-1.828-1.228zm5.498-3.666l-1.833 1.222 1.828 1.228 1.833-1.222-1.829-1.228z"/><path d="M78.474 147.46l-1.833 1.222 1.829 1.228 1.833-1.221-1.828-1.229z"/><path d="M80.307 146.239l-1.833 1.221 1.828 1.229 1.833-1.222-1.829-1.228z"/><path d="M82.14 145.017l-1.833 1.222 1.829 1.228 1.833-1.222-1.828-1.228zm-25.662 19.555l-1.833 1.221 1.828 1.228 1.833-1.221-1.828-1.228z"/><path d="M58.311 163.35l-1.833 1.222 1.828 1.228 1.833-1.222-1.828-1.228zm3.665-2.444l-1.833 1.222 1.828 1.228 1.833-1.222-1.828-1.228z"/><path d="M63.809 159.685l-1.833 1.221 1.828 1.228 1.833-1.221-1.828-1.228zm3.665-2.444l-1.833 1.222 1.829 1.228 1.833-1.222-1.828-1.228z"/><path d="M69.307 156.019l-1.833 1.222 1.828 1.228 1.833-1.222-1.828-1.228zm3.665-2.443l-1.833 1.221 1.828 1.228 1.833-1.221-1.828-1.228z"/><path d="M74.805 152.354l-1.833 1.222 1.828 1.228 1.833-1.222-1.829-1.228z"/><path d="M76.637 151.132l-1.833 1.222 1.829 1.228 1.833-1.222-1.828-1.228z"/><path d="M78.47 149.91l-1.833 1.222 1.828 1.228 1.833-1.222-1.828-1.228zm7.331-4.887l-1.833 1.222 1.829 1.228 1.833-1.222-1.828-1.228zm3.665-2.443l-1.833 1.221 1.828 1.228 1.833-1.221-1.828-1.228zm3.665-2.444l-1.833 1.222 1.828 1.228 1.833-1.222-1.828-1.228zm5.498-3.665l-1.833 1.222 1.828 1.228 1.833-1.222-1.829-1.228zm-49.486 35.438l-1.833 1.221 1.828 1.228 1.833-1.221-1.829-1.228zm5.498-3.666l-1.833 1.222 1.828 1.228 1.833-1.222-1.828-1.228zm7.331-4.887l-1.833 1.222 1.828 1.228 1.833-1.222-1.828-1.228z"/><path d="M63.804 162.134l-1.833 1.222 1.828 1.228 1.833-1.222-1.829-1.228z"/><path d="M65.637 160.913l-1.833 1.221 1.829 1.228 1.833-1.221-1.828-1.228zm10.996-7.331l-1.833 1.222 1.829 1.228 1.833-1.222-1.828-1.228zm3.665-2.444l-1.833 1.222 1.829 1.228 1.833-1.222-1.829-1.228zm3.666-2.443l-1.833 1.222 1.828 1.228 1.833-1.222-1.828-1.228zm3.665-2.444l-1.833 1.222 1.828 1.228 1.833-1.222-1.828-1.228zm-36.657 26.886l-1.833 1.221 1.828 1.228 1.833-1.221-1.828-1.228zm5.498-3.666l-1.833 1.222 1.829 1.228 1.833-1.222-1.828-1.228z"/><path d="M58.302 168.25l-1.833 1.221 1.828 1.228 1.833-1.221-1.828-1.228zm3.666-2.444l-1.833 1.222 1.828 1.228 1.833-1.222-1.828-1.228z"/><path d="M63.8 164.584l-1.833 1.222 1.828 1.228 1.833-1.222-1.828-1.228z"/><path d="M65.633 163.362l-1.833 1.222 1.828 1.228 1.833-1.222-1.828-1.228zm3.665-2.443l-1.833 1.222 1.828 1.228 1.833-1.222-1.829-1.228zm3.666-2.444l-1.833 1.222 1.828 1.228 1.833-1.222-1.829-1.228zm5.498-3.665l-1.833 1.222 1.828 1.228 1.833-1.222-1.829-1.228zm5.498-3.665l-1.833 1.221 1.828 1.229 1.833-1.222-1.828-1.228zm3.665-2.444l-1.833 1.222 1.828 1.228 1.833-1.222-1.829-1.228zm3.665-2.443l-1.833 1.221 1.829 1.228 1.833-1.221-1.828-1.228zm3.666-2.444l-1.833 1.222 1.829 1.228 1.833-1.222-1.829-1.228zm3.665-2.444l-1.833 1.222 1.828 1.228 1.832-1.221-1.828-1.229zm3.665-2.443l-1.833 1.222 1.829 1.228 1.833-1.222-1.829-1.228zm-40.323 29.329l-1.833 1.222 1.829 1.228 1.833-1.222-1.828-1.228z"/><path d="M71.127 162.147l-1.833 1.222 1.829 1.228 1.833-1.222-1.828-1.228zm5.498-3.665l-1.833 1.221 1.829 1.228 1.833-1.221-1.828-1.228z"/><path d="M78.457 157.26l-1.833 1.222 1.828 1.228 1.833-1.222-1.828-1.228zm3.666-2.444l-1.833 1.222 1.828 1.228 1.833-1.222-1.828-1.228zm3.665-2.443l-1.833 1.222 1.829 1.228 1.833-1.222-1.828-1.228z"/><path d="M87.621 151.151l-1.833 1.222 1.828 1.228 1.833-1.222-1.829-1.228z"/><path d="M89.453 149.929l-1.833 1.222 1.829 1.228 1.833-1.222-1.829-1.228z"/><path d="M91.286 148.707l-1.833 1.222 1.829 1.228 1.833-1.222-1.828-1.228zm3.665-2.443l-1.833 1.222 1.829 1.228 1.833-1.222-1.828-1.228z"/><path d="M96.784 145.042l-1.833 1.222 1.828 1.228 1.833-1.222-1.828-1.228zm-38.49 28.107l-1.833 1.222 1.828 1.228 1.833-1.222-1.829-1.228zm7.331-4.887l-1.833 1.222 1.828 1.228 1.833-1.222-1.828-1.228z"/><use xlink:href="#O"/><path d="M71.123 164.597l-1.833 1.222 1.829 1.228 1.833-1.222-1.828-1.228z"/><path d="M72.955 163.375l-1.833 1.222 1.828 1.228 1.833-1.222-1.829-1.228z"/><path d="M74.788 162.153l-1.833 1.222 1.829 1.228 1.833-1.222-1.828-1.228z"/><path d="M76.621 160.931l-1.833 1.222 1.828 1.228 1.833-1.221-1.828-1.229zm3.665-2.443l-1.833 1.222 1.828 1.228 1.833-1.222-1.828-1.228z"/><path d="M82.118 157.266l-1.833 1.222 1.828 1.228 1.833-1.222-1.829-1.228zm5.498-3.665l-1.833 1.222 1.828 1.228 1.833-1.222-1.829-1.228z"/><path d="M89.449 152.379l-1.833 1.222 1.829 1.228 1.833-1.222-1.828-1.228zm5.498-3.665l-1.833 1.221 1.828 1.229 1.833-1.222-1.828-1.228zm3.665-2.444l-1.833 1.222 1.828 1.228 1.833-1.222-1.829-1.228z"/><use xlink:href="#P"/><path d="M105.943 141.383l-1.833 1.222 1.829 1.228 1.833-1.222-1.829-1.228zm-49.486 35.438l-1.833 1.222 1.828 1.228 1.833-1.222-1.828-1.228z"/><path d="M58.29 175.599l-1.833 1.222 1.828 1.228 1.833-1.222-1.828-1.228z"/><path d="M60.122 174.377l-1.833 1.222 1.828 1.228 1.833-1.222-1.828-1.228z"/><path d="M61.955 173.155l-1.833 1.222 1.828 1.228 1.833-1.221-1.828-1.229z"/><path d="M63.788 171.934l-1.833 1.221 1.828 1.229 1.833-1.222-1.829-1.228z"/><path d="M65.62 170.712l-1.833 1.222 1.829 1.228 1.833-1.222-1.828-1.228zm18.327-12.218l-1.833 1.222 1.829 1.228 1.833-1.222-1.829-1.228z"/><path d="M85.78 157.272l-1.833 1.222 1.829 1.228 1.833-1.222-1.828-1.228zm3.665-2.443l-1.833 1.222 1.829 1.228 1.833-1.222-1.828-1.228z"/><path d="M91.278 153.607l-1.833 1.222 1.828 1.228 1.833-1.222-1.828-1.228zm3.665-2.443l-1.833 1.221 1.828 1.228 1.833-1.221-1.828-1.228z"/><path d="M96.776 149.942l-1.833 1.222 1.828 1.228 1.833-1.222-1.829-1.228z"/><path d="M98.608 148.72l-1.833 1.222 1.829 1.228 1.833-1.222-1.829-1.228z"/><use xlink:href="#Q"/><path d="M107.772 142.611l-1.833 1.222 1.828 1.228 1.833-1.222-1.828-1.228zm-47.654 34.216l-1.833 1.222 1.828 1.228 1.833-1.222-1.828-1.228zm3.665-2.443l-1.833 1.221 1.829 1.228 1.833-1.221-1.829-1.228z"/><path d="M65.616 173.162l-1.833 1.222 1.829 1.228 1.833-1.222-1.828-1.228z"/><path d="M67.449 171.94l-1.833 1.222 1.828 1.228 1.833-1.222-1.828-1.228z"/><path d="M69.281 170.718l-1.833 1.222 1.828 1.228 1.833-1.222-1.828-1.228z"/><path d="M71.114 169.496l-1.833 1.222 1.828 1.228 1.833-1.221-1.828-1.229zm3.665-2.443l-1.833 1.222 1.828 1.228 1.833-1.222-1.828-1.228zm3.666-2.444l-1.833 1.222 1.829 1.228 1.833-1.222-1.829-1.228zm7.33-4.887l-1.833 1.222 1.828 1.228 1.833-1.222-1.828-1.228z"/><path d="M87.608 158.5l-1.833 1.222 1.828 1.228 1.833-1.221-1.828-1.229zm7.331-4.887l-1.833 1.222 1.829 1.228 1.833-1.222-1.828-1.228zm3.665-2.443l-1.833 1.222 1.829 1.228 1.832-1.222-1.828-1.228z"/><use xlink:href="#R"/><path d="M104.102 147.505l-1.833 1.221 1.829 1.228 1.832-1.221-1.828-1.228zm5.498-3.666l-1.833 1.222 1.829 1.228 1.832-1.222-1.828-1.228zm-47.653 34.216l-1.833 1.222 1.828 1.228 1.833-1.222-1.828-1.228zm3.665-2.443l-1.833 1.221 1.828 1.228 1.833-1.221-1.828-1.228zm9.163-6.109l-1.833 1.222 1.829 1.228 1.833-1.222-1.828-1.228z"/><path d="M76.608 168.281l-1.833 1.222 1.828 1.228 1.833-1.222-1.829-1.228zm3.665-2.444l-1.833 1.222 1.828 1.228 1.833-1.222-1.828-1.228zm3.666-2.443l-1.833 1.222 1.828 1.228 1.833-1.222-1.828-1.228z"/><path d="M85.771 162.172l-1.833 1.222 1.828 1.228L87.6 163.4l-1.828-1.228zm3.666-2.443l-1.833 1.221 1.828 1.228 1.833-1.221-1.828-1.228z"/><path d="M91.269 158.507l-1.833 1.222 1.828 1.228 1.833-1.222-1.829-1.228zm3.666-2.444l-1.833 1.222 1.828 1.228 1.833-1.222-1.828-1.228zm3.665-2.443l-1.833 1.221 1.829 1.229 1.832-1.222-1.828-1.228z"/><path d="M100.432 152.398L98.6 153.62l1.828 1.228 1.833-1.222-1.829-1.228zm3.666-2.444l-1.833 1.222 1.829 1.228 1.832-1.222-1.828-1.228z"/><use xlink:href="#S"/><path d="M109.596 146.289l-1.833 1.222 1.829 1.228 1.832-1.222-1.828-1.228zm-47.654 34.216l-1.833 1.222 1.828 1.228 1.833-1.222-1.828-1.228zm3.666-2.444l-1.833 1.222 1.828 1.228 1.833-1.221-1.828-1.229zm3.665-2.443l-1.833 1.222 1.829 1.228 1.833-1.222-1.828-1.228zm3.665-2.444l-1.833 1.222 1.829 1.228 1.833-1.222-1.828-1.228zm7.331-4.887l-1.833 1.222 1.828 1.228 1.833-1.222-1.828-1.228zm3.665-2.443l-1.833 1.221 1.828 1.229 1.833-1.222-1.828-1.228zM87.6 163.4l-1.833 1.222 1.828 1.228 1.833-1.222L87.6 163.4z"/><path d="M89.432 162.178L87.6 163.4l1.828 1.228 1.833-1.222-1.828-1.228z"/><path d="M91.265 160.957l-1.833 1.221 1.828 1.228 1.833-1.221-1.829-1.228zm5.498-3.666l-1.833 1.222 1.829 1.228 1.833-1.222-1.828-1.228z"/><path d="M98.596 156.07l-1.833 1.221 1.828 1.228 1.833-1.221-1.828-1.228z"/><path d="M100.428 154.848l-1.832 1.222 1.828 1.228 1.833-1.222-1.829-1.228zm3.666-2.444l-1.833 1.222 1.828 1.228 1.833-1.222-1.828-1.228zm3.665-2.443l-1.833 1.221 1.829 1.228 1.832-1.221-1.828-1.228zm-42.156 30.55l-1.833 1.222 1.828 1.228 1.833-1.222-1.829-1.228z"/><path d="M67.436 179.29l-1.833 1.221 1.829 1.228 1.833-1.221-1.828-1.228zm9.163-6.109l-1.833 1.221 1.829 1.228 1.833-1.221-1.828-1.228zm5.498-3.666l-1.833 1.222 1.828 1.228 1.833-1.222-1.828-1.228zm3.666-2.443l-1.833 1.222 1.828 1.228 1.833-1.222-1.829-1.228z"/><path d="M87.595 165.85l-1.833 1.222 1.829 1.228 1.833-1.222-1.828-1.228zm3.666-2.444l-1.833 1.222 1.829 1.228 1.833-1.221-1.829-1.229z"/><path d="M93.093 162.185l-1.833 1.221 1.829 1.229 1.833-1.222-1.828-1.228zm3.666-2.444l-1.833 1.222 1.828 1.228 1.833-1.222-1.828-1.228z"/><path d="M98.591 158.519l-1.833 1.222 1.828 1.228 1.833-1.222-1.829-1.228zm5.498-3.665l-1.832 1.222 1.828 1.228 1.833-1.222-1.829-1.228zm-38.49 28.107l-1.833 1.222 1.828 1.228 1.833-1.222-1.829-1.228z"/><path d="M67.432 181.739l-1.833 1.222 1.829 1.228 1.833-1.222-1.828-1.228z"/><path d="M69.265 180.518l-1.833 1.221 1.828 1.228 1.833-1.221-1.829-1.228z"/><path d="M71.097 179.296l-1.833 1.222 1.829 1.228 1.833-1.222-1.829-1.228z"/><path d="M72.93 178.074l-1.833 1.222 1.829 1.228 1.833-1.222-1.828-1.228zm3.665-2.444l-1.833 1.222 1.828 1.228 1.833-1.221-1.828-1.229z"/><path d="M78.428 174.409l-1.833 1.221 1.828 1.229 1.833-1.222-1.828-1.228z"/><path d="M80.261 173.187l-1.833 1.222 1.828 1.228 1.833-1.222-1.829-1.228zm9.163-6.109l-1.833 1.222 1.828 1.228 1.833-1.222-1.829-1.228zm3.665-2.443l-1.833 1.221 1.828 1.228 1.833-1.221-1.828-1.228zm3.666-2.444l-1.833 1.222 1.828 1.228 1.833-1.222-1.828-1.228z"/><path d="M98.587 160.969l-1.833 1.222 1.828 1.228 1.833-1.222-1.829-1.228z"/><path d="M100.42 159.747l-1.833 1.222 1.829 1.228 1.832-1.222-1.828-1.228z"/><path d="M102.252 158.526l-1.832 1.221 1.828 1.228 1.833-1.221-1.829-1.228zm5.498-3.666l-1.832 1.222 1.828 1.228 1.833-1.222-1.829-1.228z"/><path d="M109.583 153.639l-1.833 1.221 1.829 1.228 1.833-1.221-1.829-1.228zm-42.155 30.55l-1.833 1.222 1.829 1.228 1.833-1.222-1.828-1.228zm9.163-6.109l-1.833 1.222 1.828 1.228 1.833-1.222-1.828-1.228zm5.498-3.665l-1.833 1.222 1.829 1.228 1.833-1.222-1.828-1.228zm3.665-2.444l-1.833 1.222 1.829 1.228 1.833-1.221-1.829-1.229z"/><path d="M87.587 170.75l-1.833 1.221 1.829 1.229 1.833-1.222-1.828-1.228zm3.665-2.444l-1.833 1.222 1.828 1.228 1.833-1.222-1.828-1.228zm10.996-7.331l-1.832 1.222 1.828 1.228 1.833-1.221-1.829-1.229zm10.996-7.33l-1.832 1.222 1.828 1.228 1.833-1.222-1.829-1.228z"/><path d="M115.077 152.423l-1.833 1.222 1.829 1.228 1.832-1.222-1.828-1.228z"/><path d="M116.91 151.201l-1.833 1.222 1.828 1.228 1.833-1.222-1.828-1.228zm-43.988 31.773l-1.833 1.221 1.828 1.229 1.833-1.222-1.828-1.228zm7.33-4.887l-1.833 1.221 1.829 1.228 1.833-1.221-1.829-1.228zm5.498-3.666l-1.833 1.222 1.829 1.228 1.833-1.222-1.828-1.228z"/><path d="M87.583 173.2l-1.833 1.221 1.828 1.228 1.833-1.221-1.828-1.228zm5.498-3.666l-1.833 1.222 1.828 1.228 1.833-1.222-1.829-1.228zm3.665-2.443l-1.833 1.221 1.829 1.228 1.833-1.221-1.828-1.228z"/><path d="M98.579 165.869l-1.833 1.222 1.828 1.228 1.832-1.222-1.828-1.228z"/><path d="M100.411 164.647l-1.832 1.222 1.828 1.228 1.833-1.222-1.829-1.228zm5.498-3.665l-1.832 1.222 1.828 1.228 1.833-1.222-1.829-1.228z"/><path d="M107.742 159.76l-1.833 1.222 1.829 1.228 1.832-1.222-1.828-1.228z"/><path d="M109.575 158.538l-1.833 1.222 1.828 1.228 1.833-1.222-1.828-1.228z"/><path d="M111.407 157.316l-1.832 1.222 1.828 1.228 1.833-1.221-1.829-1.229z"/><path d="M113.24 156.095l-1.833 1.221 1.829 1.229 1.832-1.222-1.828-1.228zm5.498-3.666l-1.833 1.222 1.829 1.228 1.832-1.222-1.828-1.228z"/><path d="M120.571 151.208l-1.833 1.221 1.828 1.228 1.833-1.221-1.828-1.228zm-34.825 25.663l-1.833 1.222 1.828 1.228 1.833-1.222-1.828-1.228zm7.331-4.887l-1.833 1.222 1.828 1.228 1.833-1.222-1.829-1.228zm3.665-2.444l-1.833 1.222 1.829 1.228 1.833-1.221-1.828-1.229z"/><path d="M98.575 168.319l-1.833 1.221 1.828 1.229 1.833-1.222-1.829-1.228z"/><path d="M100.407 167.097l-1.832 1.222 1.829 1.228 1.833-1.222-1.829-1.228z"/><path d="M102.24 165.875l-1.833 1.222 1.829 1.228 1.832-1.222-1.828-1.228z"/><path d="M104.073 164.653l-1.833 1.222 1.828 1.228 1.833-1.222-1.828-1.228zm3.665-2.443l-1.833 1.222 1.829 1.228 1.832-1.222-1.828-1.228zm7.33-4.887l-1.832 1.222 1.828 1.228 1.833-1.222-1.829-1.228zm3.666-2.444l-1.833 1.222 1.829 1.228 1.832-1.222-1.828-1.228z"/><path d="M120.566 153.657l-1.832 1.222 1.828 1.228 1.833-1.222-1.829-1.228zm-47.653 34.216l-1.833 1.222 1.828 1.228 1.833-1.222-1.829-1.228z"/><path d="M74.746 186.652l-1.833 1.221 1.829 1.228 1.833-1.221-1.829-1.228z"/><path d="M76.578 185.43l-1.833 1.222 1.829 1.228 1.833-1.222-1.828-1.228z"/><path d="M78.411 184.208l-1.833 1.222 1.828 1.228 1.833-1.222-1.829-1.228z"/><path d="M80.244 182.986l-1.833 1.222 1.829 1.228 1.833-1.222-1.828-1.228z"/><path d="M82.076 181.765l-1.833 1.221 1.828 1.228 1.833-1.221-1.828-1.228z"/><path d="M83.909 180.543l-1.833 1.222 1.828 1.228 1.833-1.222-1.828-1.228zm5.498-3.666l-1.833 1.222 1.829 1.228 1.833-1.222-1.829-1.228zm3.665-2.443l-1.833 1.222 1.828 1.228 1.833-1.222-1.829-1.228z"/><path d="M94.905 173.212l-1.833 1.222 1.829 1.228 1.833-1.222-1.828-1.228zm3.665-2.443l-1.833 1.221 1.828 1.228 1.833-1.221-1.829-1.228zm5.498-3.666l-1.832 1.222 1.828 1.228 1.833-1.222-1.829-1.228zm5.498-3.665l-1.832 1.222 1.828 1.228 1.833-1.222-1.829-1.228zm3.666-2.444l-1.833 1.222 1.828 1.228 1.833-1.222-1.828-1.228zm3.665-2.443l-1.833 1.222 1.829 1.228 1.832-1.222-1.828-1.228z"/><path d="M118.73 157.329l-1.833 1.222 1.828 1.228 1.833-1.222-1.828-1.228zm5.498-3.665l-1.833 1.221 1.828 1.229 1.833-1.222-1.828-1.228zm-49.486 35.437l-1.833 1.222 1.829 1.228 1.833-1.221-1.828-1.229zm10.996-7.33l-1.833 1.222 1.829 1.228 1.833-1.222-1.828-1.228zm3.665-2.444l-1.833 1.222 1.829 1.228 1.833-1.222-1.828-1.228zm3.665-2.443l-1.833 1.221 1.828 1.229 1.833-1.222-1.829-1.228z"/><path d="M94.901 175.662l-1.833 1.222 1.829 1.228 1.833-1.222-1.828-1.228zm3.665-2.444l-1.833 1.222 1.828 1.228 1.833-1.222-1.829-1.228zm7.331-4.887l-1.833 1.222 1.829 1.228 1.832-1.222-1.828-1.228z"/><path d="M107.729 167.11l-1.832 1.221 1.828 1.228 1.833-1.221-1.829-1.228z"/><path d="M109.562 165.888l-1.833 1.222 1.829 1.228 1.833-1.222-1.829-1.228z"/><path d="M111.395 164.666l-1.833 1.222 1.829 1.228 1.832-1.222-1.828-1.228zm7.33-4.887l-1.832 1.222 1.828 1.228 1.833-1.222-1.829-1.228z"/><path d="M120.558 158.557l-1.833 1.222 1.829 1.228 1.833-1.222-1.829-1.228zm3.665-2.443l-1.832 1.221 1.828 1.228 1.833-1.221-1.829-1.228zM76.57 190.33l-1.833 1.221 1.828 1.228 1.833-1.221-1.828-1.228zm3.665-2.444l-1.833 1.222 1.828 1.228 1.833-1.222-1.828-1.228z"/><path d="M82.068 186.664l-1.833 1.222 1.828 1.228 1.833-1.222-1.829-1.228z"/><path d="M83.901 185.442l-1.833 1.222 1.829 1.228 1.833-1.221-1.828-1.229zm3.665-2.443l-1.833 1.222 1.828 1.228 1.833-1.222-1.829-1.228zm7.331-4.887l-1.833 1.222 1.828 1.228 1.833-1.222-1.828-1.228z"/><path d="M96.729 176.89l-1.833 1.222 1.828 1.228 1.833-1.222-1.828-1.228zm5.498-3.665l-1.832 1.221 1.828 1.229 1.833-1.222-1.829-1.228z"/><path d="M104.06 172.003l-1.833 1.222 1.829 1.228 1.832-1.222-1.828-1.228zm5.498-3.665l-1.833 1.221 1.829 1.228 1.832-1.221-1.828-1.228z"/><path d="M111.391 167.116l-1.833 1.222 1.828 1.228 1.833-1.222-1.828-1.228z"/><path d="M113.223 165.894l-1.832 1.222 1.828 1.228 1.833-1.222-1.829-1.228z"/><path d="M115.056 164.672l-1.833 1.222 1.829 1.228 1.832-1.222-1.828-1.228z"/><path d="M116.889 163.45l-1.833 1.222 1.828 1.228 1.833-1.221-1.828-1.229z"/><path d="M118.721 162.229l-1.832 1.221 1.828 1.229 1.833-1.222-1.829-1.228z"/><path d="M120.554 161.007l-1.833 1.222 1.829 1.228 1.832-1.222-1.828-1.228z"/><path d="M122.387 159.785l-1.833 1.222 1.828 1.228 1.833-1.222-1.828-1.228z"/><path d="M124.219 158.563l-1.832 1.222 1.828 1.228 1.833-1.222-1.829-1.228z"/><path d="M126.052 157.342l-1.833 1.221 1.829 1.228 1.832-1.221-1.828-1.228z"/><path d="M127.884 156.12l-1.832 1.222 1.828 1.228 1.833-1.222-1.829-1.228zm-49.486 35.438l-1.833 1.221 1.828 1.228 1.833-1.221-1.829-1.228zm3.666-2.444l-1.833 1.222 1.828 1.228 1.833-1.222-1.829-1.228z"/><path d="M83.896 187.892l-1.833 1.222 1.829 1.228 1.833-1.222-1.828-1.228z"/><path d="M85.729 186.671l-1.833 1.221 1.828 1.228 1.833-1.221-1.829-1.228zm3.665-2.444l-1.833 1.222 1.828 1.228 1.833-1.222-1.828-1.228zm5.498-3.665l-1.833 1.221 1.828 1.228 1.833-1.221-1.828-1.228z"/><path d="M96.725 179.34l-1.833 1.222 1.828 1.228 1.833-1.222-1.829-1.228z"/><path d="M98.558 178.118l-1.833 1.222 1.829 1.228 1.832-1.222-1.828-1.228z"/><path d="M100.39 176.896l-1.832 1.222 1.828 1.228 1.833-1.222-1.829-1.228zm5.498-3.665l-1.832 1.222 1.828 1.228 1.833-1.222-1.829-1.228z"/><path d="M107.721 172.009l-1.833 1.222 1.829 1.228 1.832-1.222-1.828-1.228zm3.665-2.443l-1.832 1.221 1.828 1.228 1.833-1.221-1.829-1.228zm10.996-7.331l-1.832 1.222 1.828 1.228 1.833-1.222-1.829-1.228z"/><path d="M124.215 161.013l-1.833 1.222 1.829 1.228 1.832-1.222-1.828-1.228zm-43.988 31.773l-1.833 1.221 1.828 1.229 1.833-1.222-1.828-1.228zm3.665-2.444l-1.833 1.222 1.829 1.228 1.833-1.222-1.828-1.228z"/><path d="M85.725 189.12l-1.833 1.222 1.828 1.228 1.833-1.222-1.828-1.228z"/><path d="M87.558 187.899l-1.833 1.221 1.828 1.228 1.833-1.221-1.828-1.228zm3.665-2.444l-1.833 1.222 1.828 1.228 1.833-1.222-1.828-1.228zm7.331-4.887l-1.833 1.222 1.829 1.228 1.833-1.222-1.829-1.228z"/><path d="M100.386 179.346l-1.832 1.222 1.829 1.228 1.833-1.222-1.829-1.228zm3.665-2.443l-1.832 1.221 1.828 1.228 1.833-1.221-1.829-1.228z"/><path d="M105.884 175.681l-1.833 1.222 1.829 1.228 1.833-1.222-1.829-1.228zm10.996-7.331l-1.833 1.222 1.829 1.228 1.833-1.222-1.829-1.228z"/><path d="M118.713 167.128l-1.833 1.222 1.829 1.228 1.832-1.222-1.828-1.228zm3.665-2.443l-1.833 1.222 1.829 1.228 1.833-1.222-1.829-1.228zm-40.323 29.329l-1.833 1.222 1.829 1.228 1.833-1.222-1.828-1.228zm10.996-7.331l-1.833 1.222 1.829 1.228 1.833-1.222-1.828-1.228zm7.331-4.887l-1.833 1.222 1.829 1.228 1.832-1.222-1.828-1.228z"/><path d="M102.215 180.574l-1.833 1.222 1.828 1.228 1.833-1.222-1.828-1.228z"/><path d="M104.047 179.352l-1.832 1.222 1.828 1.228 1.833-1.222-1.829-1.228zm3.666-2.443l-1.833 1.222 1.828 1.228 1.833-1.222-1.828-1.228z"/><path d="M109.545 175.687l-1.832 1.222 1.828 1.228 1.833-1.222-1.829-1.228z"/><path d="M111.378 174.465l-1.833 1.222 1.829 1.228 1.832-1.222-1.828-1.228zm3.665-2.443l-1.832 1.222 1.828 1.228 1.833-1.222-1.829-1.228z"/><path d="M116.876 170.8l-1.833 1.222 1.829 1.228 1.832-1.222-1.828-1.228zm3.665-2.444l-1.832 1.222 1.828 1.228 1.833-1.221-1.829-1.229z"/><path d="M122.374 167.135l-1.833 1.221 1.829 1.229 1.832-1.222-1.828-1.228z"/><path d="M124.207 165.913l-1.833 1.222 1.828 1.228 1.833-1.222-1.828-1.228z"/><path d="M126.039 164.691l-1.832 1.222 1.828 1.228 1.833-1.222-1.829-1.228zm5.498-3.665l-1.832 1.222 1.828 1.228 1.833-1.222-1.829-1.228z"/><path d="M133.37 159.804l-1.833 1.222 1.829 1.228 1.832-1.222-1.828-1.228zm-49.486 35.438l-1.833 1.222 1.828 1.228 1.833-1.222-1.828-1.228z"/><path d="M85.716 194.02l-1.833 1.222 1.828 1.228 1.833-1.222-1.829-1.228z"/><path d="M87.549 192.798l-1.833 1.222 1.829 1.228 1.833-1.222-1.828-1.228z"/><path d="M89.382 191.576l-1.833 1.222 1.828 1.228 1.833-1.221-1.829-1.229z"/><path d="M91.214 190.355l-1.833 1.221 1.829 1.229 1.833-1.222-1.829-1.228z"/><path d="M93.047 189.133l-1.833 1.222 1.829 1.228 1.833-1.222-1.828-1.228z"/><path d="M94.88 187.911l-1.833 1.222 1.828 1.228 1.833-1.222-1.829-1.228zm5.498-3.665l-1.833 1.222 1.829 1.228 1.832-1.222-1.828-1.228zm5.498-3.666l-1.833 1.222 1.828 1.228 1.833-1.221-1.828-1.229zm3.665-2.443l-1.833 1.222 1.829 1.228 1.832-1.222-1.828-1.228zm5.498-3.665l-1.833 1.221 1.829 1.228 1.832-1.221-1.828-1.228z"/><path d="M116.872 173.25l-1.833 1.222 1.828 1.228 1.833-1.222-1.828-1.228z"/><path d="M118.704 172.028l-1.832 1.222 1.828 1.228 1.833-1.222-1.829-1.228zm3.666-2.443l-1.833 1.221 1.828 1.228 1.833-1.221-1.828-1.228zm7.33-4.888l-1.832 1.222 1.828 1.228 1.833-1.222-1.829-1.228z"/><path d="M131.533 163.476l-1.833 1.221 1.829 1.228 1.832-1.221-1.828-1.228z"/></g></g><path d="M87.946 203.545l6.52 4.379 4.622-3.082-1.205-.809-3.185 2.123-5.315-3.569-1.437.958zm17.669-3.054l-4.763-5.55-1.41.939 3.422 3.732-.018.012-5.609-2.273-1.346.897 3.303 3.737-.018.012-5.472-2.291-1.437.958 8.25 3.226 1.455-.97-3.349-3.707.018-.012 5.546 2.242 1.428-.952zm4.19-5.543l-4.465-2.999-1.437.958 4.401 2.956.347.258a.94.94 0 0 1 .265.287c.061.098.073.205.036.319s-.15.234-.339.36a1.49 1.49 0 0 1-.503.225c-.159.033-.314.039-.467.018s-.316-.074-.475-.148-.316-.163-.475-.27l-.292-.196-1.299.867.566.38c.359.241.727.407 1.105.497a3.75 3.75 0 0 0 1.106.094c.36-.028.704-.103 1.033-.225a4.02 4.02 0 0 0 .915-.451c.489-.325.803-.633.944-.922.134-.293.168-.564.102-.813-.073-.253-.216-.48-.429-.68a5.06 5.06 0 0 0-.639-.515zm6.271-1.431l-6.392-4.293-1.034.689c.206.188.334.376.383.564a.91.91 0 0 1-.029.556c-.067.176-.186.349-.357.52a3.93 3.93 0 0 1-.604.464l.977.656 1.611-1.074 4.145 2.785 1.3-.867zm-2.099-3.868l1.245-.83a3.4 3.4 0 0 1-.466-.373c-.14-.143-.24-.288-.301-.435a.62.62 0 0 1-.036-.441c.043-.151.159-.289.348-.415a1.67 1.67 0 0 1 .952-.28 1.69 1.69 0 0 1 .996.301c.194.131.322.278.383.442a1.05 1.05 0 0 1 .081.495 1.95 1.95 0 0 1-.092.514l-.156.495-.23.899c-.062.285-.075.563-.038.832.03.265.127.526.291.783.17.254.441.505.812.754l4.704-3.136-1.114-.748-3.029 2.019c-.061-.253-.069-.503-.026-.752a5.05 5.05 0 0 1 .184-.734l.211-.727c.074-.245.108-.484.102-.716a1.54 1.54 0 0 0-.209-.692c-.127-.224-.353-.445-.675-.661-.311-.209-.652-.356-1.023-.443s-.735-.125-1.106-.106a4.24 4.24 0 0 0-1.098.207 3.86 3.86 0 0 0-.97.463c-.384.256-.659.529-.824.818-.165.281-.226.567-.184.856.036.286.163.567.382.845.213.274.508.529.886.766zm5.086-3.39l1.244-.83a3.46 3.46 0 0 1-.465-.374c-.14-.143-.241-.288-.301-.435-.067-.151-.079-.298-.036-.44.043-.151.159-.29.348-.416.281-.187.598-.28.951-.28.354-.007.686.093.996.302.195.131.323.278.383.441.067.159.094.324.082.496a1.94 1.94 0 0 1-.092.513l-.157.496-.23.899c-.061.285-.074.562-.038.831.03.266.127.527.291.784.171.253.441.504.813.754l4.704-3.136-1.114-.749-3.029 2.02c-.061-.253-.07-.504-.026-.753a5.04 5.04 0 0 1 .184-.733l.211-.728c.074-.244.108-.483.102-.715a1.55 1.55 0 0 0-.209-.692c-.128-.225-.353-.445-.676-.662-.31-.208-.651-.356-1.023-.442-.365-.091-.734-.126-1.106-.106a4.24 4.24 0 0 0-1.097.206c-.354.114-.677.268-.97.463-.384.257-.659.529-.824.819-.165.281-.227.566-.184.856.036.285.163.567.382.845.213.273.508.529.886.766zm5.599-4.699a.97.97 0 0 1-.31-.306c-.054-.111-.073-.221-.054-.331s.067-.216.147-.318a1.2 1.2 0 0 1 .311-.293c.201-.134.394-.221.576-.262a1.6 1.6 0 0 1 .522-.042c.164.013.31.046.438.099.122.049.226.102.311.159.274.184.392.387.355.607-.043.216-.202.415-.476.598-.262.175-.561.281-.897.317s-.649-.044-.923-.228zm-1.299.707a2.49 2.49 0 0 0 1.069.4 2.4 2.4 0 0 0 1.189-.145l.018.012c-.293.318-.409.64-.349.966.066.323.304.621.712.895.347.233.712.388 1.096.467a4 4 0 0 0 1.17.05 4.4 4.4 0 0 0 1.134-.279c.372-.142.714-.317 1.025-.524.299-.2.552-.421.76-.666a1.91 1.91 0 0 0 .394-.764 1.18 1.18 0 0 0-.081-.777c-.109-.261-.334-.506-.675-.735-.402-.27-.843-.428-1.325-.473s-.966.024-1.436.223l-.018-.012c.208-.277.269-.546.184-.807-.078-.265-.276-.504-.593-.717a2.44 2.44 0 0 0-.639-.282c-.274-.086-.582-.13-.923-.13-.341-.009-.71.037-1.107.138a3.92 3.92 0 0 0-1.189.549 3.1 3.1 0 0 0-.668.592c-.184.22-.306.448-.367.685a1.14 1.14 0 0 0 .053.697c.091.233.28.445.566.637zm3.874 1.218c-.328-.22-.468-.461-.419-.722.043-.265.223-.504.541-.715.152-.102.317-.179.494-.232.183-.056.369-.087.557-.09.196-.008.384.012.567.062.183.041.35.112.503.215.158.106.277.222.356.349a.67.67 0 0 1 .109.392.8.8 0 0 1-.129.379c-.079.118-.199.23-.357.336s-.324.183-.513.243c-.195.057-.39.089-.585.097-.195 0-.39-.025-.585-.074a1.7 1.7 0 0 1-.539-.24zm1.997-4.007l1.245-.83c-.171-.115-.326-.239-.466-.374-.14-.143-.24-.288-.301-.435a.62.62 0 0 1-.036-.44c.043-.151.159-.29.349-.416.28-.187.597-.28.951-.28a1.69 1.69 0 0 1 .996.302c.195.131.322.278.383.441.067.159.094.324.081.496a1.94 1.94 0 0 1-.092.513l-.156.496-.23.899a2.39 2.39 0 0 0-.038.831c.03.266.127.527.291.784.17.253.441.504.812.754l4.705-3.136-1.114-.749-3.03 2.02a1.86 1.86 0 0 1-.026-.753 5.04 5.04 0 0 1 .184-.733l.212-.728c.073-.244.107-.483.101-.715-.011-.237-.081-.468-.209-.692s-.352-.445-.675-.662c-.31-.208-.652-.356-1.023-.442-.366-.091-.734-.126-1.106-.106a4.24 4.24 0 0 0-1.098.206c-.353.114-.677.268-.969.463-.385.257-.66.529-.825.819-.165.281-.226.566-.184.856.036.285.164.567.383.845.212.273.508.529.885.766zm5.086-3.391l1.245-.83a3.4 3.4 0 0 1-.466-.373c-.14-.143-.24-.288-.301-.435a.62.62 0 0 1-.036-.441c.043-.151.159-.289.348-.415a1.67 1.67 0 0 1 .952-.28 1.69 1.69 0 0 1 .996.301c.194.131.322.278.383.442.066.159.094.324.081.495a1.95 1.95 0 0 1-.092.514l-.156.495-.231.899a2.42 2.42 0 0 0-.038.832c.031.265.128.526.292.783.17.254.441.505.812.754l4.704-3.136-1.114-.748-3.029 2.019c-.061-.252-.069-.503-.026-.752a5.05 5.05 0 0 1 .184-.734l.211-.727c.074-.245.108-.484.102-.716a1.54 1.54 0 0 0-.209-.692c-.128-.224-.353-.445-.675-.661-.311-.209-.652-.356-1.023-.443s-.735-.125-1.106-.106a4.24 4.24 0 0 0-1.098.207 3.86 3.86 0 0 0-.97.463c-.384.256-.659.529-.824.818-.165.281-.226.567-.184.856.036.286.163.567.382.845.213.274.508.529.886.766zm8.076-4.235a1.52 1.52 0 0 1-.539.225c-.195.032-.387.038-.576.017a2.66 2.66 0 0 1-.567-.135 2.74 2.74 0 0 1-.502-.264c-.146-.098-.268-.209-.365-.331s-.158-.249-.183-.38a.65.65 0 0 1 .047-.385c.055-.126.159-.24.311-.342a1.51 1.51 0 0 1 .54-.225c.195-.041.393-.051.594-.03a2.09 2.09 0 0 1 .585.123c.189.062.356.142.503.24a1.79 1.79 0 0 1 .392.349c.097.123.158.249.182.38s.006.261-.055.391c-.068.127-.19.249-.367.367zm.501 1.585l-1.236.824c.317.163.642.28.978.35a3.79 3.79 0 0 0 1.005.075 3.52 3.52 0 0 0 .969-.194c.318-.105.613-.25.888-.433.458-.305.748-.629.87-.971.117-.346.117-.693.002-1.04-.121-.351-.334-.69-.638-1.016a5.93 5.93 0 0 0-1.05-.889c-.402-.27-.837-.514-1.306-.731s-.953-.366-1.453-.449c-.506-.086-1.012-.087-1.518-.002-.506.076-1.003.277-1.491.603-.335.224-.58.468-.732.733s-.224.536-.212.813c.012.269.106.536.282.802.176.257.429.496.758.717a3.82 3.82 0 0 0 .876.43c.329.114.677.18 1.042.197a4.26 4.26 0 0 0 1.152-.12 3.17 3.17 0 0 0 .979-.421c.312-.207.531-.427.66-.659s.153-.493.074-.783h.037c.164.127.338.28.52.46.189.175.338.361.447.557.103.192.149.386.136.581s-.147.367-.385.526c-.225.15-.494.223-.805.219a2.13 2.13 0 0 1-.849-.179zm4.444-7.888l-1.068-.718-3.579 2.386 2.902 2.795 1.172-.781c-.049-.204-.039-.382.028-.532.061-.155.208-.31.44-.465a1.76 1.76 0 0 1 .558-.249c.195-.049.396-.069.603-.061a2.15 2.15 0 0 1 .603.112 2.23 2.23 0 0 1 .539.263c.159.107.286.229.384.368a.87.87 0 0 1 .173.41c.018.135-.007.274-.074.416-.067.135-.186.259-.357.373a1.84 1.84 0 0 1-.979.31 2.03 2.03 0 0 1-1.033-.253l-1.299.867a3.34 3.34 0 0 0 1.087.461c.384.078.771.101 1.161.069s.768-.113 1.134-.243a5.02 5.02 0 0 0 1.015-.518 2.55 2.55 0 0 0 .76-.715c.172-.268.26-.544.267-.825.013-.285-.057-.565-.209-.838-.158-.278-.401-.527-.73-.748-.298-.2-.624-.358-.977-.473-.354-.123-.713-.193-1.079-.21-.359-.021-.719.011-1.079.097s-.698.233-1.015.444c-.256.171-.446.35-.568.538a1.07 1.07 0 0 0-.193.629h-.037l-1.195-1.146 2.645-1.763z" fill="#000"/><g stroke="#000"><rect x=".831" y=".001" width="35" height="106" rx="10.5" transform="matrix(.83205 -.5547 .830139 .557556 123.888 211.082)" fill="#f2f2f2"/><rect x="1.662" y=".003" width="18" height="78" rx="5" transform="matrix(.83205 -.5547 .830139 .557556 143.131 217.694)" fill="#fff" stroke-width="2"/><rect x=".831" y=".001" width="35" height="50" rx="10.5" transform="matrix(.83205 -.5547 .830139 .557556 248.409 294.716)" fill="#f2f2f2"/><rect x="1.662" y=".003" width="18" height="33" rx="5" transform="matrix(.83205 -.5547 .830139 .557556 262.672 297.982)" fill="#fff" stroke-width="2"/></g><path d="M191.207 196.108l2.023-1.349a6.64 6.64 0 0 0-1.913-.679 7.19 7.19 0 0 0-1.981-.102c-.657.047-1.295.176-1.916.388-.612.207-1.18.485-1.703.834-.728.485-1.257 1.009-1.586 1.572-.32.557-.454 1.121-.401 1.69s.277 1.131.675 1.683c.389.546.938 1.058 1.646 1.533a8.97 8.97 0 0 0 2.259 1.09c.806.256 1.63.4 2.472.431a8.83 8.83 0 0 0 2.514-.271c.834-.224 1.615-.579 2.342-1.064.586-.391 1.034-.808 1.346-1.252s.48-.901.507-1.37-.087-.937-.343-1.406-.655-.921-1.195-1.355l-2.023 1.349c.558.482.849.974.875 1.479.035.498-.268.96-.907 1.386-.47.314-.958.521-1.463.621a4.89 4.89 0 0 1-1.53.041 6.15 6.15 0 0 1-1.462-.376c-.469-.196-.903-.428-1.302-.696a6.24 6.24 0 0 1-1.075-.901c-.292-.326-.487-.659-.584-.997-.106-.344-.083-.685.069-1.023.142-.344.448-.673.919-.986a3.13 3.13 0 0 1 .865-.399 3.92 3.92 0 0 1 .984-.194c.337-.024.669-.008.997.046.319.048.616.14.891.277zm30.862 24.167l7.73 5.192 2.09-1.394-7.73-5.191 2.849-1.9-1.753-1.177-7.788 5.192 1.753 1.177 2.849-1.899zm90.234 63.741l-2.024 1.349c.576.398 1.187.666 1.834.804s1.294.174 1.941.11c.656-.07 1.291-.226 1.903-.469.629-.242 1.206-.537 1.73-.886.648-.432 1.14-.862 1.478-1.288.347-.433.551-.847.614-1.245.063-.409-.008-.795-.211-1.157s-.522-.689-.956-.98c-.531-.357-1.08-.572-1.647-.644-.568-.084-1.108-.091-1.623-.02s-.975.182-1.383.335l-.932.355-1.823.717-1.157.381c-.302.071-.546.091-.732.061a1.4 1.4 0 0 1-.558-.232c-.203-.137-.327-.28-.371-.428s-.044-.297 0-.445c.054-.154.147-.299.28-.436a2.86 2.86 0 0 1 .453-.372c.258-.172.515-.314.772-.426a3.14 3.14 0 0 1 .812-.239 2.34 2.34 0 0 1 .837.028c.293.054.59.17.891.349l2.023-1.349c-.549-.369-1.12-.61-1.714-.724a5.52 5.52 0 0 0-1.795-.083 6.51 6.51 0 0 0-1.756.459c-.568.225-1.1.503-1.597.834-.426.284-.795.607-1.105.968s-.516.735-.614 1.12-.072.771.078 1.157c.15.374.468.725.955 1.052.434.291.886.488 1.356.589.469.09.939.115 1.409.074s.94-.129 1.41-.265l1.357-.478 1.291-.505c.417-.171.812-.31 1.184-.416s.719-.159 1.038-.158a1.49 1.49 0 0 1 .877.25c.239.161.376.336.411.526.027.184-.009.368-.107.551a2.06 2.06 0 0 1-.413.525c-.187.16-.373.302-.559.426-.276.183-.573.34-.892.47-.328.124-.657.206-.985.247-.328.03-.66.008-.997-.064s-.664-.214-.983-.428z" fill="#000"/><rect x="173" y="1" width="139" height="153" rx="7" fill="#fff"/><g fill="#000"><use xlink:href="#T"/><use xlink:href="#T" x="3.349"/><use xlink:href="#T" x="6.698"/><use xlink:href="#T" x="10.047"/><use xlink:href="#T" x="13.396"/><use xlink:href="#T" x="16.745"/><use xlink:href="#T" x="20.094"/><use xlink:href="#T" x="26.793"/><use xlink:href="#T" x="33.491"/><use xlink:href="#T" x="50.237"/><use xlink:href="#T" x="53.586"/><use xlink:href="#T" x="60.284"/><use xlink:href="#T" x="66.982"/><use xlink:href="#T" x="73.681"/><use xlink:href="#T" x="77.03"/><use xlink:href="#T" x="80.379"/><use xlink:href="#T" x="83.728"/><use xlink:href="#T" x="87.077"/><use xlink:href="#T" x="90.426"/><use xlink:href="#T" x="93.775"/><use xlink:href="#T" y="3.349"/><use xlink:href="#T" x="20.094" y="3.349"/><use xlink:href="#T" x="30.142" y="3.349"/><use xlink:href="#T" x="36.84" y="3.349"/><use xlink:href="#T" x="40.189" y="3.349"/><use xlink:href="#U"/><use xlink:href="#T" x="50.237" y="3.349"/><use xlink:href="#T" x="73.681" y="3.349"/><use xlink:href="#T" x="93.775" y="3.349"/><use xlink:href="#T" y="6.698"/><use xlink:href="#T" x="6.698" y="6.698"/><use xlink:href="#T" x="10.047" y="6.698"/><use xlink:href="#T" x="13.396" y="6.698"/><use xlink:href="#T" x="20.094" y="6.698"/><use xlink:href="#T" x="36.84" y="6.698"/><use xlink:href="#T" x="40.189" y="6.698"/><use xlink:href="#T" x="43.538" y="6.698"/><use xlink:href="#T" x="50.237" y="6.698"/><use xlink:href="#T" x="53.586" y="6.698"/><use xlink:href="#T" x="63.633" y="6.698"/><use xlink:href="#T" x="66.982" y="6.698"/><use xlink:href="#T" x="73.681" y="6.698"/><use xlink:href="#T" x="80.379" y="6.698"/><use xlink:href="#T" x="83.728" y="6.698"/><use xlink:href="#T" x="87.077" y="6.698"/><use xlink:href="#T" x="93.775" y="6.698"/><use xlink:href="#T" y="10.047"/><use xlink:href="#T" x="6.698" y="10.047"/><use xlink:href="#T" x="10.047" y="10.047"/><use xlink:href="#T" x="13.396" y="10.047"/><use xlink:href="#T" x="20.094" y="10.047"/><use xlink:href="#T" x="26.793" y="10.047"/><use xlink:href="#T" x="30.142" y="10.047"/><use xlink:href="#T" x="36.84" y="10.047"/><use xlink:href="#T" x="43.538" y="10.047"/><use xlink:href="#T" x="53.586" y="10.047"/><use xlink:href="#T" x="63.633" y="10.047"/><use xlink:href="#T" x="73.681" y="10.047"/><use xlink:href="#T" x="80.379" y="10.047"/><use xlink:href="#T" x="83.728" y="10.047"/><use xlink:href="#T" x="87.077" y="10.047"/><use xlink:href="#T" x="93.775" y="10.047"/><use xlink:href="#T" y="13.396"/><use xlink:href="#T" x="6.698" y="13.396"/><use xlink:href="#T" x="10.047" y="13.396"/><use xlink:href="#T" x="13.396" y="13.396"/><use xlink:href="#T" x="20.094" y="13.396"/><use xlink:href="#T" x="43.538" y="13.396"/><use xlink:href="#U" y="10.047"/><use xlink:href="#T" x="50.237" y="13.396"/><use xlink:href="#T" x="56.935" y="13.396"/><use xlink:href="#T" x="73.681" y="13.396"/><use xlink:href="#T" x="80.379" y="13.396"/><use xlink:href="#T" x="83.728" y="13.396"/><use xlink:href="#T" x="87.077" y="13.396"/><use xlink:href="#T" x="93.775" y="13.396"/><use xlink:href="#T" y="16.745"/><use xlink:href="#T" x="20.094" y="16.745"/><use xlink:href="#T" x="26.793" y="16.745"/><use xlink:href="#T" x="30.142" y="16.745"/><use xlink:href="#T" x="33.491" y="16.745"/><use xlink:href="#T" x="36.84" y="16.745"/><use xlink:href="#T" x="40.189" y="16.745"/><use xlink:href="#T" x="43.538" y="16.745"/><use xlink:href="#T" x="50.237" y="16.745"/><use xlink:href="#T" x="53.586" y="16.745"/><use xlink:href="#T" x="73.681" y="16.745"/><use xlink:href="#T" x="93.775" y="16.745"/><use xlink:href="#T" y="20.094"/><use xlink:href="#T" x="3.349" y="20.094"/><use xlink:href="#T" x="6.698" y="20.094"/><use xlink:href="#T" x="10.047" y="20.094"/><use xlink:href="#T" x="13.396" y="20.094"/><use xlink:href="#T" x="16.745" y="20.094"/><use xlink:href="#T" x="20.094" y="20.094"/><use xlink:href="#T" x="26.793" y="20.094"/><use xlink:href="#T" x="33.491" y="20.094"/><use xlink:href="#T" x="40.189" y="20.094"/><use xlink:href="#U" y="16.745"/><use xlink:href="#T" x="53.586" y="20.094"/><use xlink:href="#T" x="60.284" y="20.094"/><use xlink:href="#T" x="66.982" y="20.094"/><use xlink:href="#T" x="73.681" y="20.094"/><use xlink:href="#T" x="77.03" y="20.094"/><use xlink:href="#T" x="80.379" y="20.094"/><use xlink:href="#T" x="83.728" y="20.094"/><use xlink:href="#T" x="87.077" y="20.094"/><use xlink:href="#T" x="90.426" y="20.094"/><use xlink:href="#T" x="93.775" y="20.094"/><use xlink:href="#T" x="30.142" y="23.444"/><use xlink:href="#U" y="20.095"/><use xlink:href="#T" x="56.935" y="23.444"/><use xlink:href="#T" x="60.284" y="23.444"/><use xlink:href="#T" x="63.633" y="23.444"/><use xlink:href="#T" x="66.982" y="23.444"/><use xlink:href="#T" x="16.745" y="26.793"/><use xlink:href="#T" x="20.094" y="26.793"/><use xlink:href="#T" x="30.142" y="26.793"/><use xlink:href="#U" y="23.444"/><use xlink:href="#T" x="50.237" y="26.793"/><use xlink:href="#T" x="53.586" y="26.793"/><use xlink:href="#T" x="56.935" y="26.793"/><use xlink:href="#U" x="23.444" y="23.444"/><use xlink:href="#T" x="77.03" y="26.793"/><use xlink:href="#T" x="83.728" y="26.793"/><use xlink:href="#T" x="93.775" y="26.793"/><use xlink:href="#V"/><use xlink:href="#V" x="10.047"/><path d="M220.731 43.08h-3.35v3.349h3.35V43.08z"/><use xlink:href="#V" x="30.142"/><use xlink:href="#V" x="50.237"/><use xlink:href="#V" x="56.935"/><use xlink:href="#V" x="63.633"/><path d="M267.619 43.08h-3.35v3.349h3.35V43.08z"/><use xlink:href="#T" y="33.491"/><use xlink:href="#T" x="10.047" y="33.491"/><use xlink:href="#T" x="13.396" y="33.491"/><use xlink:href="#T" x="20.094" y="33.491"/><use xlink:href="#U" x="-23.444" y="30.142"/><use xlink:href="#T" x="33.491" y="33.491"/><use xlink:href="#T" x="40.189" y="33.491"/><use xlink:href="#T" x="50.237" y="33.491"/><use xlink:href="#T" x="60.284" y="33.491"/><use xlink:href="#T" x="66.982" y="33.491"/><use xlink:href="#T" x="73.681" y="33.491"/><use xlink:href="#T" x="80.379" y="33.491"/><use xlink:href="#T" x="87.077" y="33.491"/><use xlink:href="#T" x="93.775" y="33.491"/><use xlink:href="#T" x="16.745" y="36.84"/><use xlink:href="#T" x="33.491" y="36.84"/><use xlink:href="#T" x="43.538" y="36.84"/><use xlink:href="#U" y="33.491"/><use xlink:href="#T" x="53.586" y="36.84"/><use xlink:href="#T" x="60.284" y="36.84"/><use xlink:href="#T" x="63.633" y="36.84"/><use xlink:href="#T" x="66.982" y="36.84"/><use xlink:href="#U" x="23.444" y="33.491"/><use xlink:href="#T" x="80.379" y="36.84"/><use xlink:href="#T" x="6.698" y="40.189"/><use xlink:href="#T" x="20.094" y="40.189"/><use xlink:href="#T" x="26.793" y="40.189"/><use xlink:href="#T" x="30.142" y="40.189"/><use xlink:href="#T" x="33.491" y="40.189"/><use xlink:href="#T" x="36.84" y="40.189"/><use xlink:href="#T" x="40.189" y="40.189"/><use xlink:href="#U" y="36.84"/><use xlink:href="#T" x="50.237" y="40.189"/><use xlink:href="#T" x="60.284" y="40.189"/><use xlink:href="#T" x="63.633" y="40.189"/><use xlink:href="#T" x="73.681" y="40.189"/><use xlink:href="#T" x="80.379" y="40.189"/><use xlink:href="#T" x="87.077" y="40.189"/><use xlink:href="#T" x="93.775" y="40.189"/><use xlink:href="#T" y="43.538"/><use xlink:href="#T" x="3.349" y="43.538"/><use xlink:href="#T" x="6.698" y="43.538"/><use xlink:href="#T" x="10.047" y="43.538"/><use xlink:href="#T" x="13.396" y="43.538"/><use xlink:href="#T" x="16.745" y="43.538"/><use xlink:href="#T" x="50.237" y="43.538"/><use xlink:href="#T" x="53.586" y="43.538"/><use xlink:href="#T" x="60.284" y="43.538"/><use xlink:href="#T" x="63.633" y="43.538"/><use xlink:href="#T" x="77.03" y="43.538"/><use xlink:href="#T" x="90.426" y="43.538"/><use xlink:href="#T" x="93.775" y="43.538"/><use xlink:href="#T" x="3.349" y="46.888"/><use xlink:href="#T" x="10.047" y="46.888"/><use xlink:href="#T" x="13.396" y="46.888"/><use xlink:href="#T" x="16.745" y="46.888"/><use xlink:href="#T" x="20.094" y="46.888"/><use xlink:href="#U" x="-23.444" y="43.539"/><use xlink:href="#T" x="30.142" y="46.888"/><use xlink:href="#T" x="36.84" y="46.888"/><use xlink:href="#T" x="50.237" y="46.888"/><use xlink:href="#T" x="53.586" y="46.888"/><use xlink:href="#T" x="66.982" y="46.888"/><use xlink:href="#T" x="80.379" y="46.888"/><use xlink:href="#T" x="83.728" y="46.888"/><use xlink:href="#T" x="93.775" y="46.888"/><use xlink:href="#T" x="3.349" y="50.237"/><use xlink:href="#T" x="10.047" y="50.237"/><use xlink:href="#T" x="26.793" y="50.237"/><use xlink:href="#T" x="30.142" y="50.237"/><use xlink:href="#T" x="36.84" y="50.237"/><use xlink:href="#T" x="43.538" y="50.237"/><use xlink:href="#U" y="46.888"/><use xlink:href="#T" x="53.586" y="50.237"/><use xlink:href="#T" x="56.935" y="50.237"/><use xlink:href="#T" x="63.633" y="50.237"/><use xlink:href="#U" x="23.444" y="46.888"/><use xlink:href="#T" x="73.681" y="50.237"/><use xlink:href="#T" x="80.379" y="50.237"/><use xlink:href="#T" x="83.728" y="50.237"/><use xlink:href="#T" x="90.426" y="50.237"/><use xlink:href="#T" y="53.586"/><use xlink:href="#T" x="6.698" y="53.586"/><use xlink:href="#T" x="13.396" y="53.586"/><use xlink:href="#T" x="20.094" y="53.586"/><use xlink:href="#T" x="33.491" y="53.586"/><use xlink:href="#T" x="40.189" y="53.586"/><use xlink:href="#U" y="50.237"/><use xlink:href="#T" x="50.237" y="53.586"/><use xlink:href="#T" x="53.586" y="53.586"/><use xlink:href="#T" x="63.633" y="53.586"/><use xlink:href="#T" x="66.982" y="53.586"/><use xlink:href="#U" x="23.444" y="50.237"/><use xlink:href="#T" x="77.03" y="53.586"/><use xlink:href="#T" x="83.728" y="53.586"/><use xlink:href="#T" x="6.698" y="56.935"/><use xlink:href="#U" x="-23.444" y="53.586"/><use xlink:href="#T" x="33.491" y="56.935"/><use xlink:href="#T" x="40.189" y="56.935"/><use xlink:href="#T" x="43.538" y="56.935"/><use xlink:href="#T" x="50.237" y="56.935"/><use xlink:href="#T" x="53.586" y="56.935"/><use xlink:href="#T" x="60.284" y="56.935"/><use xlink:href="#T" x="63.633" y="56.935"/><use xlink:href="#T" x="73.681" y="56.935"/><use xlink:href="#T" y="60.284"/><use xlink:href="#T" x="6.698" y="60.284"/><use xlink:href="#T" x="10.047" y="60.284"/><use xlink:href="#T" x="13.396" y="60.284"/><use xlink:href="#T" x="20.094" y="60.284"/><use xlink:href="#U" x="-23.444" y="56.935"/><use xlink:href="#T" x="26.793" y="60.284"/><use xlink:href="#T" x="43.538" y="60.284"/><use xlink:href="#T" x="50.237" y="60.284"/><use xlink:href="#T" x="56.935" y="60.284"/><use xlink:href="#T" x="60.284" y="60.284"/><use xlink:href="#T" x="63.633" y="60.284"/><use xlink:href="#T" x="66.982" y="60.284"/><use xlink:href="#T" x="77.03" y="60.284"/><use xlink:href="#T" x="80.379" y="60.284"/><use xlink:href="#T" y="63.633"/><use xlink:href="#T" x="16.745" y="63.633"/><use xlink:href="#T" x="26.793" y="63.633"/><use xlink:href="#T" x="33.491" y="63.633"/><use xlink:href="#T" x="36.84" y="63.633"/><use xlink:href="#T" x="43.538" y="63.633"/><use xlink:href="#T" x="63.633" y="63.633"/><use xlink:href="#T" x="83.728" y="63.633"/><use xlink:href="#T" x="87.077" y="63.633"/><use xlink:href="#T" x="90.426" y="63.633"/><use xlink:href="#W"/><use xlink:href="#W" x="13.396"/><use xlink:href="#W" x="23.444"/><use xlink:href="#W" x="26.793"/><use xlink:href="#W" x="36.84"/><use xlink:href="#W" x="43.539"/><use xlink:href="#W" x="46.888"/><use xlink:href="#W" x="50.237"/><use xlink:href="#W" x="60.284"/><path d="M267.619 79.92h-3.35v3.349h3.35V79.92z"/><use xlink:href="#W" x="66.983"/><use xlink:href="#W" x="70.332"/><use xlink:href="#W" x="73.681"/><use xlink:href="#W" x="83.728"/><use xlink:href="#W" x="87.077"/><use xlink:href="#T" x="26.793" y="70.331"/><use xlink:href="#T" x="40.189" y="70.331"/><use xlink:href="#U" y="66.982"/><use xlink:href="#T" x="50.237" y="70.331"/><use xlink:href="#T" x="53.586" y="70.331"/><use xlink:href="#T" x="56.935" y="70.331"/><use xlink:href="#T" x="60.284" y="70.331"/><use xlink:href="#T" x="66.982" y="70.331"/><use xlink:href="#T" x="80.379" y="70.331"/><use xlink:href="#T" x="87.077" y="70.331"/><use xlink:href="#T" x="90.426" y="70.331"/><use xlink:href="#T" y="73.681"/><use xlink:href="#T" x="3.349" y="73.681"/><use xlink:href="#T" x="6.698" y="73.681"/><use xlink:href="#T" x="10.047" y="73.681"/><use xlink:href="#T" x="13.396" y="73.681"/><use xlink:href="#T" x="16.745" y="73.681"/><use xlink:href="#T" x="20.094" y="73.681"/><use xlink:href="#T" x="30.142" y="73.681"/><use xlink:href="#T" x="36.84" y="73.681"/><use xlink:href="#T" x="40.189" y="73.681"/><use xlink:href="#U" y="70.332"/><use xlink:href="#T" x="56.935" y="73.681"/><use xlink:href="#T" x="66.982" y="73.681"/><use xlink:href="#T" x="73.681" y="73.681"/><use xlink:href="#T" x="80.379" y="73.681"/><use xlink:href="#T" x="83.728" y="73.681"/><use xlink:href="#T" x="93.775" y="73.681"/><use xlink:href="#T" y="77.03"/><use xlink:href="#T" x="20.094" y="77.03"/><use xlink:href="#T" x="26.793" y="77.03"/><use xlink:href="#T" x="33.491" y="77.03"/><use xlink:href="#T" x="36.84" y="77.03"/><use xlink:href="#T" x="43.538" y="77.03"/><use xlink:href="#T" x="56.935" y="77.03"/><use xlink:href="#T" x="60.284" y="77.03"/><use xlink:href="#T" x="63.633" y="77.03"/><use xlink:href="#T" x="66.982" y="77.03"/><use xlink:href="#T" x="80.379" y="77.03"/><use xlink:href="#T" x="83.728" y="77.03"/><use xlink:href="#T" x="90.426" y="77.03"/><use xlink:href="#T" y="80.379"/><use xlink:href="#T" x="6.698" y="80.379"/><use xlink:href="#T" x="10.047" y="80.379"/><use xlink:href="#T" x="13.396" y="80.379"/><use xlink:href="#T" x="20.094" y="80.379"/><use xlink:href="#U" y="77.03"/><use xlink:href="#T" x="50.237" y="80.379"/><use xlink:href="#T" x="60.284" y="80.379"/><use xlink:href="#T" x="63.633" y="80.379"/><use xlink:href="#T" x="66.982" y="80.379"/><use xlink:href="#U" x="23.444" y="77.03"/><use xlink:href="#T" x="73.681" y="80.379"/><use xlink:href="#T" x="77.03" y="80.379"/><use xlink:href="#T" x="80.379" y="80.379"/><use xlink:href="#T" x="83.728" y="80.379"/><use xlink:href="#T" x="87.077" y="80.379"/><use xlink:href="#T" x="90.426" y="80.379"/><use xlink:href="#T" x="93.775" y="80.379"/><use xlink:href="#T" y="83.728"/><use xlink:href="#T" x="6.698" y="83.728"/><use xlink:href="#T" x="10.047" y="83.728"/><use xlink:href="#T" x="13.396" y="83.728"/><use xlink:href="#T" x="20.094" y="83.728"/><use xlink:href="#T" x="30.142" y="83.728"/><use xlink:href="#T" x="33.491" y="83.728"/><use xlink:href="#T" x="40.189" y="83.728"/><use xlink:href="#T" x="50.237" y="83.728"/><use xlink:href="#T" x="53.586" y="83.728"/><use xlink:href="#T" x="60.284" y="83.728"/><use xlink:href="#T" x="80.379" y="83.728"/><use xlink:href="#T" x="83.728" y="83.728"/><use xlink:href="#T" y="87.077"/><use xlink:href="#T" x="6.698" y="87.077"/><use xlink:href="#T" x="10.047" y="87.077"/><use xlink:href="#T" x="13.396" y="87.077"/><use xlink:href="#T" x="20.094" y="87.077"/><use xlink:href="#T" x="33.491" y="87.077"/><use xlink:href="#T" x="43.538" y="87.077"/><use xlink:href="#U" y="83.728"/><use xlink:href="#T" x="66.982" y="87.077"/><use xlink:href="#U" x="23.444" y="83.728"/><use xlink:href="#T" x="77.03" y="87.077"/><use xlink:href="#T" y="90.426"/><use xlink:href="#T" x="20.094" y="90.426"/><use xlink:href="#T" x="33.491" y="90.426"/><use xlink:href="#T" x="40.189" y="90.426"/><use xlink:href="#U" y="87.077"/><use xlink:href="#T" x="50.237" y="90.426"/><use xlink:href="#T" x="53.586" y="90.426"/><use xlink:href="#T" x="60.284" y="90.426"/><use xlink:href="#T" x="63.633" y="90.426"/><use xlink:href="#U" x="23.444" y="87.077"/><use xlink:href="#T" x="73.681" y="90.426"/><use xlink:href="#T" x="77.03" y="90.426"/><use xlink:href="#T" x="80.379" y="90.426"/><use xlink:href="#T" x="90.426" y="90.426"/><use xlink:href="#T" x="93.775" y="90.426"/><use xlink:href="#X"/><use xlink:href="#X" x="3.349"/><use xlink:href="#X" x="6.698"/><use xlink:href="#X" x="10.047"/><use xlink:href="#X" x="13.396"/><use xlink:href="#X" x="16.745"/><use xlink:href="#X" x="20.094"/><use xlink:href="#X" x="30.142"/><use xlink:href="#X" x="40.189"/><path d="M244.175 106.713h-3.35v3.35h3.35v-3.35z"/><use xlink:href="#X" x="56.935"/><use xlink:href="#X" x="60.284"/><use xlink:href="#X" x="63.633"/><path d="M267.619 106.713h-3.35v3.35h3.35v-3.35z"/><use xlink:href="#X" x="83.728"/><use xlink:href="#X" x="87.077"/><path d="M189.154 127.058V139h8.447v-2.208h-5.821v-9.734h-2.626zM209.528 139l3.211-11.942h-2.576l-1.957 8.229h-.033l-2.041-8.229h-2.458l-2.074 8.128h-.034l-1.89-8.128h-2.626L200.211 139h2.66l1.99-8.129h.034l2.024 8.129h2.609zm11.413-3.763v-8.179h-2.626v8.062c0 .211-.012.434-.034.669a1.77 1.77 0 0 1-.15.635c-.078.19-.212.346-.402.469s-.457.184-.803.184c-.312 0-.568-.051-.769-.151-.19-.1-.34-.234-.452-.401a1.82 1.82 0 0 1-.234-.636 4.55 4.55 0 0 1-.067-.803v-.535h-2.375v1.037c0 .658.112 1.221.335 1.689.223.457.518.837.886 1.138.368.29.786.501 1.255.635a4.89 4.89 0 0 0 1.455.218c.892 0 1.6-.134 2.124-.402.524-.279.926-.619 1.204-1.02.279-.413.457-.853.536-1.321s.117-.898.117-1.288zm7.705 3.763v-11.708h-1.89c-.067.446-.207.819-.419 1.12a2.58 2.58 0 0 1-.786.736c-.301.179-.646.307-1.037.385-.379.067-.775.095-1.187.084v1.789h2.944V139h2.375zm3.356-7.209h2.275c0-.312.028-.624.083-.937a2.98 2.98 0 0 1 .318-.869c.145-.268.335-.48.569-.636.245-.167.541-.251.886-.251.513 0 .931.162 1.255.485.334.312.502.753.502 1.322a1.82 1.82 0 0 1-.251.953c-.156.279-.357.53-.602.753-.235.223-.497.429-.787.619l-.819.535-1.439 1.02a6.93 6.93 0 0 0-1.17 1.104c-.335.39-.603.836-.803 1.338-.19.502-.285 1.093-.285 1.773h8.598v-2.041h-5.537c.29-.401.625-.752 1.004-1.053s.769-.58 1.171-.837l1.187-.802a6.52 6.52 0 0 0 1.071-.887 4.11 4.11 0 0 0 .752-1.137c.19-.424.285-.931.285-1.522 0-.569-.112-1.082-.335-1.539-.212-.457-.502-.842-.87-1.154a3.92 3.92 0 0 0-1.288-.719c-.479-.168-.986-.251-1.522-.251-.702 0-1.327.122-1.873.368-.535.234-.981.568-1.338 1.003-.357.424-.624.926-.803 1.505a5.57 5.57 0 0 0-.234 1.857zm9.294 0h2.275c0-.312.028-.624.083-.937a2.98 2.98 0 0 1 .318-.869c.145-.268.335-.48.569-.636.245-.167.541-.251.886-.251.513 0 .931.162 1.255.485.334.312.502.753.502 1.322a1.82 1.82 0 0 1-.251.953c-.156.279-.357.53-.602.753-.235.223-.497.429-.787.619l-.819.535-1.439 1.02a6.93 6.93 0 0 0-1.17 1.104c-.335.39-.603.836-.803 1.338-.19.502-.285 1.093-.285 1.773h8.598v-2.041h-5.537c.29-.401.625-.752 1.004-1.053s.769-.58 1.171-.837l1.187-.802a6.52 6.52 0 0 0 1.071-.887 4.11 4.11 0 0 0 .752-1.137c.19-.424.285-.931.285-1.522 0-.569-.112-1.082-.335-1.539-.212-.457-.502-.842-.87-1.154s-.797-.552-1.287-.719c-.48-.168-.987-.251-1.523-.251-.702 0-1.326.122-1.873.368-.535.234-.981.568-1.338 1.003-.357.424-.624.926-.803 1.505a5.57 5.57 0 0 0-.234 1.857zm11.552-1.321c0-.268.045-.502.134-.703a1.49 1.49 0 0 1 .401-.502c.168-.133.357-.234.569-.301.223-.078.452-.117.686-.117.368 0 .663.056.886.168.234.111.413.25.536.418a1.34 1.34 0 0 1 .267.535c.045.178.067.346.067.502 0 .502-.167.886-.502 1.154-.334.256-.752.385-1.254.385-.48 0-.898-.129-1.255-.385-.356-.268-.535-.652-.535-1.154zm-2.158-.218c0 .58.145 1.087.435 1.522s.72.731 1.288.887v.033c-.702.168-1.249.502-1.639 1.004-.379.502-.569 1.126-.569 1.873 0 .636.123 1.182.368 1.639.257.457.591.837 1.004 1.138a4.25 4.25 0 0 0 1.422.652 6.3 6.3 0 0 0 1.656.217 5.99 5.99 0 0 0 1.605-.217c.524-.156.993-.385 1.405-.686a3.34 3.34 0 0 0 .987-1.137c.257-.457.385-.998.385-1.623 0-.736-.19-1.354-.569-1.856-.379-.513-.92-.848-1.622-1.004v-.033c.568-.19.992-.502 1.271-.937.29-.435.435-.942.435-1.522 0-.29-.067-.613-.201-.97-.134-.368-.357-.708-.669-1.02-.301-.324-.703-.597-1.204-.82s-1.115-.334-1.84-.334a5.18 5.18 0 0 0-1.422.2c-.468.134-.892.335-1.271.602a3.26 3.26 0 0 0-.903 1.004c-.234.401-.352.864-.352 1.388zm1.891 5.202c0-.602.2-1.059.602-1.371.401-.324.892-.486 1.472-.486a2.15 2.15 0 0 1 .769.134 1.86 1.86 0 0 1 .636.385 1.67 1.67 0 0 1 .434.602c.112.223.168.474.168.753a2.11 2.11 0 0 1-.151.803c-.1.245-.245.457-.435.635-.178.168-.39.301-.635.402-.235.089-.497.133-.786.133a2.43 2.43 0 0 1-.803-.133c-.257-.101-.48-.234-.669-.402a2.12 2.12 0 0 1-.435-.635c-.112-.246-.167-.519-.167-.82zm7.303-3.663h2.275a5.31 5.31 0 0 1 .084-.937 2.95 2.95 0 0 1 .317-.869c.145-.268.335-.48.569-.636.245-.167.541-.251.886-.251.513 0 .932.162 1.255.485.334.312.502.753.502 1.322a1.82 1.82 0 0 1-.251.953c-.156.279-.357.53-.602.753-.234.223-.497.429-.786.619l-.82.535-1.438 1.02c-.446.335-.837.703-1.171 1.104-.335.39-.602.836-.803 1.338-.19.502-.284 1.093-.284 1.773h8.597v-2.041h-5.537c.29-.401.625-.752 1.004-1.053s.769-.58 1.171-.837l1.187-.802c.402-.268.759-.564 1.071-.887a4.11 4.11 0 0 0 .752-1.137c.19-.424.285-.931.285-1.522 0-.569-.112-1.082-.335-1.539-.212-.457-.501-.842-.869-1.154a3.93 3.93 0 0 0-1.288-.719 4.57 4.57 0 0 0-1.522-.251c-.703 0-1.327.122-1.874.368-.535.234-.981.568-1.338 1.003-.357.424-.624.926-.803 1.505a5.57 5.57 0 0 0-.234 1.857zm9.294 0h2.275a5.31 5.31 0 0 1 .084-.937 2.95 2.95 0 0 1 .317-.869c.145-.268.335-.48.569-.636.245-.167.541-.251.887-.251.512 0 .931.162 1.254.485.335.312.502.753.502 1.322a1.82 1.82 0 0 1-.251.953c-.156.279-.357.53-.602.753a5.52 5.52 0 0 1-.786.619l-.82.535-1.438 1.02c-.446.335-.837.703-1.171 1.104-.335.39-.602.836-.803 1.338-.19.502-.284 1.093-.284 1.773h8.597v-2.041h-5.537c.29-.401.625-.752 1.004-1.053s.769-.58 1.171-.837l1.187-.802c.402-.268.759-.564 1.071-.887.312-.334.563-.714.753-1.137s.284-.931.284-1.522c0-.569-.112-1.082-.335-1.539-.212-.457-.501-.842-.869-1.154a3.93 3.93 0 0 0-1.288-.719 4.57 4.57 0 0 0-1.522-.251c-.703 0-1.327.122-1.874.368-.535.234-.981.568-1.338 1.003-.357.424-.624.926-.803 1.505a5.57 5.57 0 0 0-.234 1.857zm13.191 1.572c-.301 0-.568-.061-.802-.184-.223-.133-.407-.301-.552-.501-.145-.212-.257-.446-.335-.703-.067-.268-.1-.541-.1-.82a2.69 2.69 0 0 1 .117-.786c.078-.256.195-.485.351-.685a1.82 1.82 0 0 1 .569-.485 1.53 1.53 0 0 1 .752-.184 1.7 1.7 0 0 1 .803.184c.234.122.43.289.586.501a1.93 1.93 0 0 1 .368.703c.089.256.133.518.133.786a2.97 2.97 0 0 1-.117.836 2.1 2.1 0 0 1-.351.686c-.156.201-.351.362-.585.485-.234.112-.513.167-.837.167zm-1.706 2.626h-2.258c.067.513.207.97.419 1.372s.485.741.819 1.02.719.485 1.154.619c.435.145.903.217 1.405.217.836 0 1.545-.178 2.124-.535a4.55 4.55 0 0 0 1.422-1.422c.368-.59.636-1.248.803-1.973s.251-1.45.251-2.175c0-.736-.067-1.466-.201-2.191s-.373-1.371-.719-1.94a3.95 3.95 0 0 0-1.388-1.388c-.569-.357-1.299-.535-2.191-.535-.614 0-1.171.111-1.673.334s-.937.53-1.305.92c-.357.379-.635.831-.836 1.355-.19.513-.284 1.07-.284 1.672 0 .469.072.932.217 1.389s.374.864.686 1.221c.334.368.741.663 1.221.886.479.212.97.318 1.472.318.568 0 1.07-.1 1.505-.301s.814-.535 1.137-1.004l.034.034a9.53 9.53 0 0 1-.151 1.104c-.067.412-.184.803-.351 1.171-.167.356-.39.663-.669.92-.279.245-.636.367-1.07.367-.413 0-.759-.144-1.037-.434s-.458-.63-.536-1.021zm14.847-6.74v-1.957h-6.539l-1.155 6.473h2.141c.235-.324.485-.558.753-.703.268-.156.613-.234 1.037-.234a2.05 2.05 0 0 1 .853.167 1.9 1.9 0 0 1 .636.469 1.99 1.99 0 0 1 .401.702c.089.268.134.552.134.853 0 .29-.05.574-.151.853a2.16 2.16 0 0 1-.401.719 2.04 2.04 0 0 1-.636.502c-.245.123-.524.184-.836.184-.535 0-.976-.156-1.321-.468-.346-.323-.547-.753-.602-1.288h-2.375c.011.613.133 1.154.367 1.622.246.458.569.842.971 1.155a4.2 4.2 0 0 0 1.371.702 6.12 6.12 0 0 0 1.639.217 4.38 4.38 0 0 0 1.673-.284 4.21 4.21 0 0 0 1.371-.886c.402-.38.72-.826.954-1.338.234-.525.351-1.088.351-1.69a4.65 4.65 0 0 0-.251-1.539c-.156-.49-.39-.914-.702-1.271-.301-.357-.675-.641-1.121-.853s-.959-.318-1.539-.318c-.468 0-.886.073-1.254.218-.368.134-.714.362-1.037.686l-.034-.034.469-2.659h4.833z"/></g><rect x="180" y="119" width="125" height="28" rx="5" stroke="#d4351c" stroke-width="4"/><circle cx="154" cy="168" r="6" fill="#d4351c"/><path stroke="#d4351c" stroke-width="5" stroke-linecap="square" d="M158.374 164.484l22.11-17.858"/><defs><clipPath id="B"><path fill="#fff" transform="matrix(.83205 -.5547 .830139 .557556 23.2707 162.065)" d="M0 0h73v73H0z"/></clipPath><path id="C" d="M32.687 160.856l-1.833 1.222 1.828 1.228 1.833-1.222-1.828-1.228z"/><path id="D" d="M38.185 157.191l-1.833 1.221 1.828 1.228 1.833-1.221-1.828-1.228z"/><path id="E" d="M40.018 155.969l-1.833 1.222 1.828 1.228 1.833-1.222-1.829-1.228z"/><path id="F" d="M41.85 154.747l-1.833 1.222 1.829 1.228 1.833-1.222-1.828-1.228z"/><path id="G" d="M56.508 147.423l-1.833 1.221 1.829 1.229 1.833-1.222-1.828-1.228z"/><path id="H" d="M47.34 155.981l-1.833 1.222 1.828 1.228 1.833-1.221-1.828-1.229z"/><path id="I" d="M80.328 133.989l-1.833 1.222 1.829 1.228 1.833-1.221-1.828-1.229z"/><path id="J" d="M82.161 132.768l-1.833 1.221 1.828 1.229 1.833-1.222-1.829-1.228z"/><path id="K" d="M83.993 131.546l-1.833 1.222 1.829 1.228 1.833-1.222-1.829-1.228z"/><path id="L" d="M41.838 162.097l-1.833 1.221 1.828 1.228 1.833-1.221-1.829-1.228z"/><path id="M" d="M43.666 163.325l-1.833 1.221 1.828 1.229 1.833-1.222-1.828-1.228z"/><path id="N" d="M93.144 132.787l-1.833 1.221 1.829 1.228 1.833-1.221-1.828-1.228z"/><path id="O" d="M69.29 165.819l-1.833 1.221 1.829 1.228 1.833-1.221-1.829-1.228z"/><path id="P" d="M102.278 143.827l-1.833 1.221 1.829 1.228 1.832-1.221-1.828-1.228z"/><path id="Q" d="M105.939 143.833l-1.833 1.222 1.829 1.228 1.832-1.222-1.828-1.228z"/><path id="R" d="M102.269 148.726l-1.832 1.222 1.828 1.228 1.833-1.222-1.829-1.228z"/><path id="S" d="M105.93 148.733l-1.832 1.221 1.828 1.228 1.833-1.221-1.829-1.228z"/><path id="T" d="M197.287 12.938h-3.349v3.349h3.349v-3.349z"/><path id="U" d="M244.175 16.287h-3.35v3.349h3.35v-3.349z"/><path id="V" d="M197.287 43.08h-3.349v3.349h3.349V43.08z"/><path id="W" d="M203.985 79.92h-3.349v3.349h3.349V79.92z"/><path id="X" d="M197.287 106.713h-3.349v3.35h3.349v-3.35z"/></defs></svg>